<mxfile host="app.diagrams.net" modified="2024-01-15T00:09:30.752Z" agent="Mozilla/5.0 (Macintosh; Intel Mac OS X 10_15_7) AppleWebKit/537.36 (KHTML, like Gecko) Chrome/117.0.0.0 Safari/537.36" etag="IrPr362ok2eGyG-Gist3" version="22.1.18" type="device">
  <diagram name="Page-1" id="Gmgp5uhwbD2Tw-6dmJXy">
    <mxGraphModel dx="3065" dy="2660" grid="1" gridSize="10" guides="1" tooltips="1" connect="1" arrows="1" fold="1" page="1" pageScale="1" pageWidth="850" pageHeight="1100" background="#ffffff" math="0" shadow="0">
      <root>
        <mxCell id="0" />
        <mxCell id="1" parent="0" />
        <mxCell id="O0CgCwb5rhvd9dTBc7-d-1" value="" style="rounded=0;whiteSpace=wrap;html=1;fillColor=none;strokeColor=#6c8ebf;" vertex="1" parent="1">
          <mxGeometry x="-240" y="-520" width="1640" height="1160" as="geometry" />
        </mxCell>
        <mxCell id="O0CgCwb5rhvd9dTBc7-d-2" value="" style="rounded=0;whiteSpace=wrap;html=1;" vertex="1" parent="1">
          <mxGeometry x="-240" y="-390" width="280" height="830" as="geometry" />
        </mxCell>
        <mxCell id="O0CgCwb5rhvd9dTBc7-d-3" value="" style="html=1;verticalLabelPosition=bottom;align=center;labelBackgroundColor=#ffffff;verticalAlign=top;strokeWidth=2;strokeColor=#0080F0;shadow=0;dashed=0;shape=mxgraph.ios7.icons.home;" vertex="1" parent="1">
          <mxGeometry x="-22" y="450" width="62" height="70" as="geometry" />
        </mxCell>
        <mxCell id="O0CgCwb5rhvd9dTBc7-d-5" value="" style="rounded=0;whiteSpace=wrap;html=1;direction=south;fillColor=#f8cecc;strokeColor=#b85450;" vertex="1" parent="1">
          <mxGeometry x="230" y="435.5" width="20" height="40" as="geometry" />
        </mxCell>
        <mxCell id="O0CgCwb5rhvd9dTBc7-d-33" value="" style="rounded=0;whiteSpace=wrap;html=1;direction=south;fillColor=#f8cecc;strokeColor=#b85450;" vertex="1" parent="1">
          <mxGeometry x="470" y="560" width="20" height="40" as="geometry" />
        </mxCell>
        <mxCell id="O0CgCwb5rhvd9dTBc7-d-34" value="" style="rounded=0;whiteSpace=wrap;html=1;direction=south;fillColor=#f8cecc;strokeColor=#b85450;" vertex="1" parent="1">
          <mxGeometry x="470" y="520" width="20" height="40" as="geometry" />
        </mxCell>
        <mxCell id="O0CgCwb5rhvd9dTBc7-d-36" value="" style="rounded=0;whiteSpace=wrap;html=1;direction=south;fillColor=#f8cecc;strokeColor=#b85450;" vertex="1" parent="1">
          <mxGeometry x="230" y="475.5" width="20" height="40" as="geometry" />
        </mxCell>
        <mxCell id="O0CgCwb5rhvd9dTBc7-d-42" value="" style="rounded=0;whiteSpace=wrap;html=1;direction=south;fillColor=#f8cecc;strokeColor=#b85450;" vertex="1" parent="1">
          <mxGeometry x="1130" y="80" width="20" height="40" as="geometry" />
        </mxCell>
        <mxCell id="O0CgCwb5rhvd9dTBc7-d-43" value="" style="rounded=0;whiteSpace=wrap;html=1;direction=south;fillColor=#f8cecc;strokeColor=#b85450;" vertex="1" parent="1">
          <mxGeometry x="1130" y="120" width="20" height="40" as="geometry" />
        </mxCell>
        <mxCell id="O0CgCwb5rhvd9dTBc7-d-44" value="" style="rounded=0;whiteSpace=wrap;html=1;direction=south;fillColor=#f8cecc;strokeColor=#b85450;" vertex="1" parent="1">
          <mxGeometry x="1130" y="-80" width="20" height="40" as="geometry" />
        </mxCell>
        <mxCell id="O0CgCwb5rhvd9dTBc7-d-45" value="" style="rounded=0;whiteSpace=wrap;html=1;direction=south;fillColor=#f8cecc;strokeColor=#b85450;" vertex="1" parent="1">
          <mxGeometry x="1130" y="-40" width="20" height="40" as="geometry" />
        </mxCell>
        <mxCell id="O0CgCwb5rhvd9dTBc7-d-46" value="" style="rounded=0;whiteSpace=wrap;html=1;direction=south;fillColor=#f8cecc;strokeColor=#b85450;" vertex="1" parent="1">
          <mxGeometry x="1130" y="240" width="20" height="40" as="geometry" />
        </mxCell>
        <mxCell id="O0CgCwb5rhvd9dTBc7-d-47" value="" style="rounded=0;whiteSpace=wrap;html=1;direction=south;fillColor=#f8cecc;strokeColor=#b85450;" vertex="1" parent="1">
          <mxGeometry x="1130" y="280" width="20" height="40" as="geometry" />
        </mxCell>
        <mxCell id="O0CgCwb5rhvd9dTBc7-d-48" value="" style="rounded=0;whiteSpace=wrap;html=1;direction=south;fillColor=#f8cecc;strokeColor=#b85450;" vertex="1" parent="1">
          <mxGeometry x="370" y="-240" width="20" height="44.5" as="geometry" />
        </mxCell>
        <mxCell id="O0CgCwb5rhvd9dTBc7-d-49" value="" style="rounded=0;whiteSpace=wrap;html=1;direction=south;fillColor=#f8cecc;strokeColor=#b85450;" vertex="1" parent="1">
          <mxGeometry x="370" y="-200" width="20" height="40" as="geometry" />
        </mxCell>
        <mxCell id="O0CgCwb5rhvd9dTBc7-d-50" value="" style="rounded=0;whiteSpace=wrap;html=1;direction=south;fillColor=#f8cecc;strokeColor=#b85450;" vertex="1" parent="1">
          <mxGeometry x="370" y="-80" width="20" height="40" as="geometry" />
        </mxCell>
        <mxCell id="O0CgCwb5rhvd9dTBc7-d-51" value="" style="rounded=0;whiteSpace=wrap;html=1;direction=south;fillColor=#f8cecc;strokeColor=#b85450;" vertex="1" parent="1">
          <mxGeometry x="370" y="-40" width="20" height="40" as="geometry" />
        </mxCell>
        <mxCell id="O0CgCwb5rhvd9dTBc7-d-53" value="" style="rounded=0;whiteSpace=wrap;html=1;direction=west;fillColor=#f8cecc;strokeColor=#b85450;" vertex="1" parent="1">
          <mxGeometry x="990" y="470" width="40" height="20" as="geometry" />
        </mxCell>
        <mxCell id="O0CgCwb5rhvd9dTBc7-d-54" value="" style="rounded=0;whiteSpace=wrap;html=1;direction=south;fillColor=#f8cecc;strokeColor=#b85450;" vertex="1" parent="1">
          <mxGeometry x="370" y="80" width="20" height="40" as="geometry" />
        </mxCell>
        <mxCell id="O0CgCwb5rhvd9dTBc7-d-55" value="" style="rounded=0;whiteSpace=wrap;html=1;direction=south;fillColor=#f8cecc;strokeColor=#b85450;" vertex="1" parent="1">
          <mxGeometry x="370" y="120" width="20" height="40" as="geometry" />
        </mxCell>
        <mxCell id="O0CgCwb5rhvd9dTBc7-d-56" value="" style="rounded=0;whiteSpace=wrap;html=1;direction=south;fillColor=#f8cecc;strokeColor=#b85450;" vertex="1" parent="1">
          <mxGeometry x="370" y="250" width="20" height="40" as="geometry" />
        </mxCell>
        <mxCell id="O0CgCwb5rhvd9dTBc7-d-57" value="" style="rounded=0;whiteSpace=wrap;html=1;direction=south;fillColor=#f8cecc;strokeColor=#b85450;" vertex="1" parent="1">
          <mxGeometry x="370" y="290" width="20" height="40" as="geometry" />
        </mxCell>
        <mxCell id="O0CgCwb5rhvd9dTBc7-d-59" value="" style="rounded=0;whiteSpace=wrap;html=1;direction=south;fillColor=#f8cecc;strokeColor=#b85450;" vertex="1" parent="1">
          <mxGeometry x="1130" y="-520" width="20" height="40" as="geometry" />
        </mxCell>
        <mxCell id="O0CgCwb5rhvd9dTBc7-d-60" value="" style="rounded=0;whiteSpace=wrap;html=1;direction=south;fillColor=#f8cecc;strokeColor=#b85450;" vertex="1" parent="1">
          <mxGeometry x="1130" y="-480" width="20" height="40" as="geometry" />
        </mxCell>
        <mxCell id="O0CgCwb5rhvd9dTBc7-d-61" value="" style="shape=ext;double=1;rounded=0;whiteSpace=wrap;html=1;fillColor=none;strokeColor=#6c8ebf;gradientColor=default;dashed=1;strokeWidth=4;" vertex="1" parent="1">
          <mxGeometry x="120" y="-440" width="630" height="1070" as="geometry" />
        </mxCell>
        <mxCell id="O0CgCwb5rhvd9dTBc7-d-66" value="" style="rounded=0;whiteSpace=wrap;html=1;direction=south;fillColor=#f8cecc;strokeColor=#b85450;" vertex="1" parent="1">
          <mxGeometry x="1310" y="610" width="20" height="40" as="geometry" />
        </mxCell>
        <mxCell id="O0CgCwb5rhvd9dTBc7-d-67" value="" style="rounded=0;whiteSpace=wrap;html=1;direction=south;fillColor=#f8cecc;strokeColor=#b85450;" vertex="1" parent="1">
          <mxGeometry x="1310" y="570" width="20" height="40" as="geometry" />
        </mxCell>
        <mxCell id="O0CgCwb5rhvd9dTBc7-d-68" value="" style="rounded=0;whiteSpace=wrap;html=1;direction=south;fillColor=#f8cecc;strokeColor=#b85450;" vertex="1" parent="1">
          <mxGeometry x="1255" y="400" width="20" height="40" as="geometry" />
        </mxCell>
      </root>
    </mxGraphModel>
  </diagram>
</mxfile>
